<?xml version="1.0" encoding="UTF-8"?>
<svg width="1400px" height="112px" viewBox="0 0 1400 112" version="1.1" xmlns="http://www.w3.org/2000/svg" xmlns:xlink="http://www.w3.org/1999/xlink">
    <!-- Generator: Sketch 49.3 (51167) - http://www.bohemiancoding.com/sketch -->
    <title>cloud top</title>
    <desc>Created with Sketch.</desc>
    <defs></defs>
    <g id="cloud-top" stroke="none" stroke-width="1" fill="none" fill-rule="evenodd">
        <path d="M4900.00005,89.5245641 C4875.28947,103.81887 4846.60014,112 4816,112 C4765.82291,112 4720.78367,90.0022948 4690,55.1246246 C4659.21633,90.0022948 4614.17709,112 4564,112 C4513.82291,112 4468.78367,90.0022948 4438,55.1246246 C4407.21633,90.0022948 4362.17709,112 4312,112 C4261.82291,112 4216.78367,90.0022948 4186,55.1246246 C4155.21633,90.0022948 4110.17709,112 4060,112 C4009.82291,112 3964.78367,90.0022948 3934,55.1246246 C3903.21633,90.0022948 3858.17709,112 3808,112 C3757.82291,112 3712.78367,90.0022948 3682,55.1246246 C3651.21633,90.0022948 3606.17709,112 3556,112 C3505.82291,112 3460.78367,90.0022948 3430,55.1246246 C3399.21633,90.0022948 3354.17709,112 3304,112 C3253.82291,112 3208.78367,90.0022948 3178,55.1246246 C3147.21633,90.0022948 3102.17709,112 3052,112 C3001.82291,112 2956.78367,90.0022948 2926,55.1246246 C2895.21633,90.0022948 2850.17709,112 2800,112 C2749.82291,112 2704.78367,90.0022948 2674,55.1246246 C2643.21633,90.0022948 2598.17709,112 2548,112 C2497.82291,112 2452.78367,90.0022948 2422,55.1246246 C2391.21633,90.0022948 2346.17709,112 2296,112 C2245.82291,112 2200.78367,90.0022948 2170,55.1246246 C2139.21633,90.0022948 2094.17709,112 2044,112 C1993.82291,112 1948.78367,90.0022948 1918,55.1246246 C1887.21633,90.0022948 1842.17709,112 1792,112 C1741.82291,112 1696.78367,90.0022948 1666,55.1246246 C1635.21633,90.0022948 1590.17709,112 1540,112 C1489.82291,112 1444.78367,90.0022948 1414,55.1246246 C1383.21633,90.0022948 1338.17709,112 1288,112 C1237.82291,112 1192.78367,90.0022948 1162,55.1246246 C1131.21633,90.0022948 1086.17709,112 1036,112 C985.822914,112 940.783667,90.0022948 910,55.1246246 C879.216333,90.0022948 834.177086,112 784,112 C733.822914,112 688.783667,90.0022948 658,55.1246246 C627.216333,90.0022948 582.177086,112 532,112 C481.822914,112 436.783667,90.0022948 406,55.1246246 C375.216333,90.0022948 330.177086,112 280,112 C229.822914,112 184.783667,90.0022948 154,55.1246246 C123.216333,90.0022948 78.1770861,112 28,112 C-22.1770861,112 -67.2163329,90.0022948 -98,55.1246246 C-128.783667,90.0022948 -173.822914,112 -224,112 C-274.177086,112 -319.216333,90.0022948 -350,55.1246246 C-380.783667,90.0022948 -425.822914,112 -476,112 C-526.177086,112 -571.216333,90.0022948 -602,55.1246246 C-632.783667,90.0022948 -677.822914,112 -728,112 C-778.177086,112 -823.216333,90.0022948 -854,55.1246246 C-884.783667,90.0022948 -929.822914,112 -980,112 C-1030.17709,112 -1075.21633,90.0022948 -1106,55.1246246 C-1136.78367,90.0022948 -1181.82291,112 -1232,112 C-1282.17709,112 -1327.21633,90.0022948 -1358,55.1246246 C-1388.78367,90.0022948 -1433.82291,112 -1484,112 C-1534.17709,112 -1579.21633,90.0022948 -1610,55.1246246 C-1640.78367,90.0022948 -1685.82291,112 -1736,112 C-1786.17709,112 -1831.21633,90.0022948 -1862,55.1246246 C-1892.78367,90.0022948 -1937.82291,112 -1988,112 C-2038.17709,112 -2083.21633,90.0022948 -2114,55.1246246 C-2144.78367,90.0022948 -2189.82291,112 -2240,112 C-2290.17709,112 -2335.21633,90.0022948 -2366,55.1246246 C-2396.78367,90.0022948 -2441.82291,112 -2492,112 C-2542.17709,112 -2587.21633,90.0022948 -2618,55.1246246 C-2648.78367,90.0022948 -2693.82291,112 -2744,112 C-2794.17709,112 -2839.21633,90.0022948 -2870,55.1246246 C-2900.78367,90.0022948 -2945.82291,112 -2996,112 C-3046.17709,112 -3091.21633,90.0022948 -3122,55.1246246 C-3152.78367,90.0022948 -3197.82291,112 -3248,112 C-3298.17709,112 -3343.21633,90.0022948 -3374,55.1246246 C-3404.78367,90.0022948 -3449.82291,112 -3500,112 L-3500,-224 L-3500,-4256 L4900,-4256 L4900,-201.524591 L4900,89.5245912 Z" id="Combined-Shape" fill="#92CEFF" opacity="0.1"></path>
        <path d="M3963.00004,72.2704701 C3942.40789,84.1823914 3918.50012,91 3893,91 C3851.18576,91 3813.65306,72.668579 3788,43.6038538 C3762.34694,72.668579 3724.81424,91 3683,91 C3641.18576,91 3603.65306,72.668579 3578,43.6038538 C3552.34694,72.668579 3514.81424,91 3473,91 C3431.18576,91 3393.65306,72.668579 3368,43.6038538 C3342.34694,72.668579 3304.81424,91 3263,91 C3221.18576,91 3183.65306,72.668579 3158,43.6038538 C3132.34694,72.668579 3094.81424,91 3053,91 C3011.18576,91 2973.65306,72.668579 2948,43.6038538 C2922.34694,72.668579 2884.81424,91 2843,91 C2801.18576,91 2763.65306,72.668579 2738,43.6038538 C2712.34694,72.668579 2674.81424,91 2633,91 C2591.18576,91 2553.65306,72.668579 2528,43.6038538 C2502.34694,72.668579 2464.81424,91 2423,91 C2381.18576,91 2343.65306,72.668579 2318,43.6038538 C2292.34694,72.668579 2254.81424,91 2213,91 C2171.18576,91 2133.65306,72.668579 2108,43.6038538 C2082.34694,72.668579 2044.81424,91 2003,91 C1961.18576,91 1923.65306,72.668579 1898,43.6038538 C1872.34694,72.668579 1834.81424,91 1793,91 C1751.18576,91 1713.65306,72.668579 1688,43.6038538 C1662.34694,72.668579 1624.81424,91 1583,91 C1541.18576,91 1503.65306,72.668579 1478,43.6038538 C1452.34694,72.668579 1414.81424,91 1373,91 C1331.18576,91 1293.65306,72.668579 1268,43.6038538 C1242.34694,72.668579 1204.81424,91 1163,91 C1121.18576,91 1083.65306,72.668579 1058,43.6038538 C1032.34694,72.668579 994.814238,91 953,91 C911.185762,91 873.653056,72.668579 848,43.6038538 C822.346944,72.668579 784.814238,91 743,91 C701.185762,91 663.653056,72.668579 638,43.6038538 C612.346944,72.668579 574.814238,91 533,91 C491.185762,91 453.653056,72.668579 428,43.6038538 C402.346944,72.668579 364.814238,91 323,91 C281.185762,91 243.653056,72.668579 218,43.6038538 C192.346944,72.668579 154.814238,91 113,91 C71.1857616,91 33.6530559,72.668579 8,43.6038538 C-17.6530559,72.668579 -55.1857616,91 -97,91 C-138.814238,91 -176.346944,72.668579 -202,43.6038538 C-227.653056,72.668579 -265.185762,91 -307,91 C-348.814238,91 -386.346944,72.668579 -412,43.6038538 C-437.653056,72.668579 -475.185762,91 -517,91 C-558.814238,91 -596.346944,72.668579 -622,43.6038538 C-647.653056,72.668579 -685.185762,91 -727,91 C-768.814238,91 -806.346944,72.668579 -832,43.6038538 C-857.653056,72.668579 -895.185762,91 -937,91 C-978.814238,91 -1016.34694,72.668579 -1042,43.6038538 C-1067.65306,72.668579 -1105.18576,91 -1147,91 C-1188.81424,91 -1226.34694,72.668579 -1252,43.6038538 C-1277.65306,72.668579 -1315.18576,91 -1357,91 C-1398.81424,91 -1436.34694,72.668579 -1462,43.6038538 C-1487.65306,72.668579 -1525.18576,91 -1567,91 C-1608.81424,91 -1646.34694,72.668579 -1672,43.6038538 C-1697.65306,72.668579 -1735.18576,91 -1777,91 C-1818.81424,91 -1856.34694,72.668579 -1882,43.6038538 C-1907.65306,72.668579 -1945.18576,91 -1987,91 C-2028.81424,91 -2066.34694,72.668579 -2092,43.6038538 C-2117.65306,72.668579 -2155.18576,91 -2197,91 C-2238.81424,91 -2276.34694,72.668579 -2302,43.6038538 C-2327.65306,72.668579 -2365.18576,91 -2407,91 C-2448.81424,91 -2486.34694,72.668579 -2512,43.6038538 C-2537.65306,72.668579 -2575.18576,91 -2617,91 C-2658.81424,91 -2696.34694,72.668579 -2722,43.6038538 C-2747.65306,72.668579 -2785.18576,91 -2827,91 C-2868.81424,91 -2906.34694,72.668579 -2932,43.6038538 C-2957.65306,72.668579 -2995.18576,91 -3037,91 L-3037,-189 L-3037,-3549 L3963,-3549 L3963,-170.270493 L3963,72.2704927 Z" id="Combined-Shape" fill="#92CEFF" opacity="0.1"></path>
        <path d="M3207.00003,62.0163761 C3190.52632,71.5459131 3171.40009,77 3151,77 C3117.54861,77 3087.52244,62.3348632 3067,39.0830831 C3046.47756,62.3348632 3016.45139,77 2983,77 C2949.54861,77 2919.52244,62.3348632 2899,39.0830831 C2878.47756,62.3348632 2848.45139,77 2815,77 C2781.54861,77 2751.52244,62.3348632 2731,39.0830831 C2710.47756,62.3348632 2680.45139,77 2647,77 C2613.54861,77 2583.52244,62.3348632 2563,39.0830831 C2542.47756,62.3348632 2512.45139,77 2479,77 C2445.54861,77 2415.52244,62.3348632 2395,39.0830831 C2374.47756,62.3348632 2344.45139,77 2311,77 C2277.54861,77 2247.52244,62.3348632 2227,39.0830831 C2206.47756,62.3348632 2176.45139,77 2143,77 C2109.54861,77 2079.52244,62.3348632 2059,39.0830831 C2038.47756,62.3348632 2008.45139,77 1975,77 C1941.54861,77 1911.52244,62.3348632 1891,39.0830831 C1870.47756,62.3348632 1840.45139,77 1807,77 C1773.54861,77 1743.52244,62.3348632 1723,39.0830831 C1702.47756,62.3348632 1672.45139,77 1639,77 C1605.54861,77 1575.52244,62.3348632 1555,39.0830831 C1534.47756,62.3348632 1504.45139,77 1471,77 C1437.54861,77 1407.52244,62.3348632 1387,39.0830831 C1366.47756,62.3348632 1336.45139,77 1303,77 C1269.54861,77 1239.52244,62.3348632 1219,39.0830831 C1198.47756,62.3348632 1168.45139,77 1135,77 C1101.54861,77 1071.52244,62.3348632 1051,39.0830831 C1030.47756,62.3348632 1000.45139,77 967,77 C933.548609,77 903.522445,62.3348632 883,39.0830831 C862.477555,62.3348632 832.451391,77 799,77 C765.548609,77 735.522445,62.3348632 715,39.0830831 C694.477555,62.3348632 664.451391,77 631,77 C597.548609,77 567.522445,62.3348632 547,39.0830831 C526.477555,62.3348632 496.451391,77 463,77 C429.548609,77 399.522445,62.3348632 379,39.0830831 C358.477555,62.3348632 328.451391,77 295,77 C261.548609,77 231.522445,62.3348632 211,39.0830831 C190.477555,62.3348632 160.451391,77 127,77 C93.5486092,77 63.5224447,62.3348632 43,39.0830831 C22.4775553,62.3348632 -7.54860924,77 -41,77 C-74.4513908,77 -104.477555,62.3348632 -125,39.0830831 C-145.522445,62.3348632 -175.548609,77 -209,77 C-242.451391,77 -272.477555,62.3348632 -293,39.0830831 C-313.522445,62.3348632 -343.548609,77 -377,77 C-410.451391,77 -440.477555,62.3348632 -461,39.0830831 C-481.522445,62.3348632 -511.548609,77 -545,77 C-578.451391,77 -608.477555,62.3348632 -629,39.0830831 C-649.522445,62.3348632 -679.548609,77 -713,77 C-746.451391,77 -776.477555,62.3348632 -797,39.0830831 C-817.522445,62.3348632 -847.548609,77 -881,77 C-914.451391,77 -944.477555,62.3348632 -965,39.0830831 C-985.522445,62.3348632 -1015.54861,77 -1049,77 C-1082.45139,77 -1112.47756,62.3348632 -1133,39.0830831 C-1153.52244,62.3348632 -1183.54861,77 -1217,77 C-1250.45139,77 -1280.47756,62.3348632 -1301,39.0830831 C-1321.52244,62.3348632 -1351.54861,77 -1385,77 C-1418.45139,77 -1448.47756,62.3348632 -1469,39.0830831 C-1489.52244,62.3348632 -1519.54861,77 -1553,77 C-1586.45139,77 -1616.47756,62.3348632 -1637,39.0830831 C-1657.52244,62.3348632 -1687.54861,77 -1721,77 C-1754.45139,77 -1784.47756,62.3348632 -1805,39.0830831 C-1825.52244,62.3348632 -1855.54861,77 -1889,77 C-1922.45139,77 -1952.47756,62.3348632 -1973,39.0830831 C-1993.52244,62.3348632 -2023.54861,77 -2057,77 C-2090.45139,77 -2120.47756,62.3348632 -2141,39.0830831 C-2161.52244,62.3348632 -2191.54861,77 -2225,77 C-2258.45139,77 -2288.47756,62.3348632 -2309,39.0830831 C-2329.52244,62.3348632 -2359.54861,77 -2393,77 L-2393,-147 L-2393,-2835 L3207,-2835 L3207,-132.016394 L3207,62.0163941 Z" id="Combined-Shape" fill="#FFFFFF" opacity="0.400000006"></path>
    </g>
</svg>