<?xml version="1.0" encoding="UTF-8"?>
<svg width="165px" height="42px" viewBox="0 0 165 42" version="1.1" xmlns="http://www.w3.org/2000/svg" xmlns:xlink="http://www.w3.org/1999/xlink">
    <!-- Generator: Sketch 50.2 (55047) - http://www.bohemiancoding.com/sketch -->
    <title>title</title>
    <desc>Created with Sketch.</desc>
    <defs>
        <linearGradient x1="50%" y1="0%" x2="50%" y2="100%" id="linearGradient-1">
            <stop stop-color="#7BCE27" offset="0%"></stop>
            <stop stop-color="#92CEFF" offset="50.8783418%"></stop>
            <stop stop-color="#C8A1FF" offset="100%"></stop>
        </linearGradient>
        <linearGradient x1="50%" y1="0%" x2="50%" y2="100%" id="linearGradient-2">
            <stop stop-color="#7BCE27" offset="0%"></stop>
            <stop stop-color="#92CEFF" offset="51.2102601%"></stop>
            <stop stop-color="#C8A1FF" offset="100%"></stop>
        </linearGradient>
        <linearGradient x1="50%" y1="0%" x2="50%" y2="100%" id="linearGradient-3">
            <stop stop-color="#7BCE27" offset="0%"></stop>
            <stop stop-color="#92CEFF" offset="51.2621929%"></stop>
            <stop stop-color="#C8A1FF" offset="100%"></stop>
        </linearGradient>
        <linearGradient x1="50%" y1="0%" x2="50%" y2="100%" id="linearGradient-4">
            <stop stop-color="#7BCE27" offset="0%"></stop>
            <stop stop-color="#92CEFF" offset="50.5080383%"></stop>
            <stop stop-color="#C8A1FF" offset="100%"></stop>
        </linearGradient>
    </defs>
    <g id="Page-1" stroke="none" stroke-width="1" fill="none" fill-rule="evenodd">
        <g id="full" transform="translate(-618.000000, -1386.000000)" stroke-width="0.5">
            <g id="title" transform="translate(618.000000, 1386.000000)">
                <g id="Group">
                    <g id="an-de" transform="translate(29.310658, 0.069663)" fill="#FF838B" fill-rule="nonzero" stroke="#FFFFFF">
                        <path d="M1.5922214,38.7252213 C0.707370704,37.4811794 1.50068512,33.5944832 1.5922214,32.202341 C1.65324558,30.8101987 0.603466243,24.8833906 0.695002521,20.3219033 C0.847562986,13.5685326 1.25445253,12.2575501 1.40914884,8.74135435 C1.50007488,6.67239406 0.801447834,3.81641912 2.52703377,2.5066685 C4.25261971,1.19691787 17.214413,0.930337444 19.3807716,0.930337444 C27.405452,0.930337444 39.5022649,0.930337444 46.0483407,0.930337444 C52.5944166,0.930337444 55.5681137,2.5066685 55.5681137,7.89104851 C55.5681137,9.11254357 55.0494081,11.7416546 54.8053114,13.7558178 C54.5612147,15.769981 54.7747993,17.5768039 54.6222388,17.7545242 C54.4696784,17.9618645 54.7140802,29.4248227 54.622544,29.5433029 C54.5615198,29.6617831 54.9273598,37.8366199 54.6222388,38.7252213 C53.9509728,40.7097645 49.4656951,41.0053765 46.0483407,40.9165163 C38.3592933,40.679556 22.8591501,39.9103194 19.3807716,39.8806994 C17.6720944,39.8510793 9.14030294,39.9553419 7.78617625,39.9988834 C3.46535878,40.1383938 1.70633663,38.881319 1.5922214,38.7252213 Z M14.2242279,32.4319221 C14.8649818,31.9428817 15.8413688,31.0564958 16.3905864,30.4451953 L17.3669734,29.3142892 L18.5874571,30.5674554 C19.3807716,31.3927111 19.9605013,31.7900565 20.2656222,31.6677964 C21.1504729,31.3315811 20.7843278,30.2923701 19.3197474,29.069769 L17.885679,27.8471679 L18.2518241,26.6245667 C18.4654088,25.9521361 18.6179692,24.8823601 18.6179692,24.2099295 L18.6179692,22.9873284 L20.4792069,22.7733732 C21.5166181,22.6816781 22.798126,22.589983 23.3473436,22.589983 C24.5373153,22.589983 25.1475571,21.9481174 24.8729483,21.0311665 C24.6593636,20.419866 24.5373153,20.3893009 22.9201743,20.5726911 C21.9742994,20.6949512 20.5707432,20.8783414 19.7774288,20.9700365 L18.3128483,21.1534267 L18.3128483,20.1753457 C18.3128483,19.6557403 18.1907999,19.2278299 18.0077274,19.2278299 C17.8551669,19.2278299 17.7026064,19.7168703 17.7026064,20.2976059 C17.7026064,21.3062518 17.6415823,21.3673819 16.6346832,21.4285119 C16.0549534,21.4590769 15.3226632,21.489642 15.0480544,21.489642 C14.590373,21.520207 14.6260721,20.9306076 15.1701027,18.8610495 C15.9536533,15.8806536 15.2579776,15.2931938 14.4683246,18.0969238 C14.1220123,19.3268606 13.3393772,21.7341622 13.3393772,21.7341622 L10.5017525,21.6119021 C8.67102695,21.550772 7.66412788,21.6424671 7.72515207,21.8258573 C7.87771253,22.2537677 9.25075671,22.4982879 11.4171153,22.559418 L13.2173288,22.589983 L13.0342562,24.0571043 C12.8816958,25.4936607 12.8816958,25.4936607 14.5598609,27.0830422 C16.0244413,28.4584684 16.1770018,28.7335537 15.902393,29.2837242 C15.597272,29.8644597 13.6750102,31.4232762 12.3324781,32.2485319 C11.7527483,32.5847473 11.966333,33.2877429 12.637599,33.2877429 C12.8511837,33.2877429 13.5834739,32.8903975 14.2242279,32.4319221 Z M45.7432198,31.5761013 C46.4449979,31.0564958 46.47551,30.9648007 46.3229496,27.4803875 L46.1703891,23.8737142 L47.9095784,23.690324 C49.9538886,23.4458038 50.8387393,22.9261983 50.5641305,22.1315076 C50.41157,21.7952922 50.1674733,21.6730321 49.8318403,21.7952922 C49.5572314,21.9175524 48.5198203,22.0703775 47.5434333,22.1926376 L45.7737319,22.3760278 L45.7737319,21.2756868 C45.7737319,19.7168703 45.2245142,19.5640452 44.9804175,21.0617316 L44.7668328,22.2843327 L42.9055952,22.2843327 C40.0984826,22.2843327 36.0098622,22.651113 36.0098622,22.8956333 C36.0098622,23.0178934 37.596491,23.2012836 39.549265,23.3235437 C43.6989096,23.5680639 44.7668328,23.7514541 44.9499054,24.2404945 C45.0109296,24.4238847 44.9804175,25.891006 44.8888812,27.4803875 C44.7058087,30.3229352 44.7058087,30.3840652 43.9124942,30.4757603 C43.4548128,30.5368904 42.2648412,30.2923701 41.2274301,29.9255898 C39.2136319,29.2531592 38.7559505,29.3142892 38.7559505,30.2312401 C38.7559505,31.7289265 44.0650547,32.7375724 45.7432198,31.5761013 Z M33.6909431,24.8823601 C33.6909431,23.2012836 33.5994068,20.5115611 33.5383827,18.9221796 L33.4163343,16.0185019 L34.9114268,14.0929051 C35.7352533,13.0536941 36.3149831,12.1061783 36.1624226,11.9533531 C35.8573017,11.6477028 29.6023227,18.310879 29.6023227,18.9527446 C29.6023227,20.0836507 30.3346129,19.9308255 31.4940724,18.5859643 C32.1348264,17.8524036 32.6230199,17.4550582 32.5314836,17.6995785 C32.4704594,17.9440987 32.3178989,20.3893009 32.1958506,23.1401535 L31.9822659,30.8731057 C31.9822659,30.8731057 32.5772517,31.5519549 32.8671166,31.5213899 C33.1569815,31.4908249 33.7214552,30.6897155 33.7214552,30.6897155 L33.6909431,24.8823601 Z M40.6565488,26.5609915 C39.8937465,25.8579958 37.5659789,25.3408355 37.4134185,25.6159208 C37.1998338,25.9521361 40.2815552,27.8166028 40.6782124,27.5720826 C40.8307729,27.4803875 40.8091093,26.6832516 40.6565488,26.5609915 Z M49.2521105,18.8916146 C50.5336184,18.4637042 50.8997635,17.9135337 50.3810579,17.2716681 C50.1064491,16.9354527 49.6792798,16.9660178 47.8180421,17.3939282 C46.5975584,17.6995785 44.0955668,18.0357938 42.2648412,18.1274888 C36.4065194,18.4942692 34.8504026,18.9527446 38.4508296,19.2583949 C41.8071598,19.5640452 47.8790663,19.35009 49.2521105,18.8916146 Z M9.34229299,15.3460713 C9.25075671,14.7042057 9.06768416,13.8789499 8.97614788,13.5121696 C8.79307532,12.8397389 8.8846116,12.8091739 10.5627767,12.7480439 C11.5696758,12.7174788 12.7901595,12.7174788 13.3088651,12.7480439 C13.8275706,12.8091739 16.0854655,12.6257837 18.3433604,12.3812635 C20.5707432,12.1367433 22.493005,11.9839182 22.5540292,12.0756132 C22.6455655,12.1673083 22.798126,12.9619991 22.8896622,13.8178199 C23.0117106,15.1626811 23.133759,15.4072013 23.6524646,15.4072013 C24.2016822,15.4072013 24.2627064,15.2238112 24.2321943,13.4816045 C24.2016822,11.9533531 24.0796339,11.4031826 23.5609283,10.9141422 L22.9201743,10.2722766 L18.556945,10.9141422 C16.1464897,11.2809225 13.0037441,11.6782679 11.5391637,11.831093 C9.03717206,12.0450482 8.85409951,12.0450482 8.85409951,11.4948777 C8.85409951,11.1586624 8.70153904,10.9752722 8.48795439,11.0669673 C8.21334556,11.1586624 8.09129718,11.861658 8.12180928,13.2982144 C8.12180928,15.7739817 8.33539393,16.4769773 9.03717206,16.4769773 C9.46434136,16.4769773 9.49485346,16.2630221 9.34229299,15.3460713 Z M30.7312701,14.7347707 C32.0432901,13.0536941 34.2401608,9.38589075 33.996064,9.17193555 C33.6909431,8.86628526 28.6869599,14.6736406 28.6869599,15.3766363 C28.6869599,16.2630221 29.7853952,15.8962418 30.7312701,14.7347707 Z M47.5129212,14.8264658 C48.1231631,14.2457303 48.092651,8.40780984 47.4824091,7.46029396 C46.8416552,6.48221305 46.47551,6.51277808 43.9430063,7.6131191 C41.2579422,8.80515521 40.0069463,9.04967543 39.6713133,8.49950492 C39.4577287,8.16328961 39.3661924,8.19385464 39.1831198,8.62176504 C39.0915836,8.89685029 38.7559505,9.14137052 38.4813417,9.14137052 C38.0541724,9.17193555 38.0541724,9.20250058 38.4508296,9.53871589 C38.7559505,9.78323611 38.908511,10.5167968 38.9390231,11.9839182 C38.9390231,13.4816045 39.0915836,14.2151652 39.4577287,14.5513805 C39.9154101,15.009856 39.9764343,15.009856 40.1595068,14.5513805 C40.2510431,14.2457303 40.1900189,13.4204745 40.0069463,12.6563488 C39.3661924,10.0888864 39.4577287,9.8749312 41.3494784,9.63041097 C42.2648412,9.53871589 43.6378854,9.2330656 44.4311998,8.95798035 C45.1940021,8.71346012 45.8957803,8.56063498 45.9873166,8.65233007 C46.0788528,8.74402515 46.0483407,9.41645577 45.9568045,10.1500165 C45.7737319,11.4031826 45.6821956,10.8835771 44.4006877,11.2197924 C43.6378854,11.4337476 42.6309863,11.5865728 42.1122808,11.5865728 C41.6240873,11.5865728 41.1664059,11.7088329 41.0443575,11.861658 C40.7697487,12.3201335 43.515837,12.5952187 44.5532482,12.2590034 C45.3770747,11.9533531 45.468611,12.5952187 45.468611,13.1453892 C45.468611,13.8483849 44.5532482,14.2762953 42.2343291,14.5208155 C40.5256519,14.7347707 40.0679705,15.1321161 41.2884542,15.3155062 C42.6004742,15.5294614 47.1467761,15.1932461 47.5129212,14.8264658 Z M16.6041711,8.74402515 C17.1839009,7.21577373 17.214413,7.00181854 16.7872437,7.00181854 C16.4821227,7.00181854 15.261639,9.17193555 15.261639,9.75267109 C15.261639,10.5779269 16.1464897,9.90549623 16.6041711,8.74402515 Z" id="Shape"></path>
                        <path d="M15.3870764,26.434781 C14.2276168,25.6095252 14.1055685,25.39557 14.2581289,24.6008793 C14.3496652,24.0812738 14.4412015,23.2511276 14.4412015,23.0983025 C14.4412015,22.9454774 15.1734917,23.1337579 16.0583424,23.194888 L17.6449712,23.2865831 L17.553435,24.8148345 C17.4313866,26.5570411 17.248314,27.4128619 16.9431931,27.4128619 C16.8211447,27.3822969 16.1193666,26.9543865 15.3870764,26.434781 Z" id="Shape"></path>
                    </g>
                    <g id="gen" opacity="0.5" transform="translate(0.000000, 7.793814)" fill="#32312D" fill-rule="nonzero" stroke="#32312D">
                        <path d="M0.247709785,25.8056429 C0.247709785,25.6803465 0.628437608,25.4798722 1.08531099,25.3545757 C1.51680253,25.2292793 2.9381864,24.7030342 4.18189728,24.2269078 C7.63382954,22.8486469 10.349688,22.0467497 10.7811795,22.1971054 C11.0096162,22.2973426 11.1619074,22.5729947 11.1111437,22.8987655 C11.0603799,23.2997141 10.7304158,23.5001884 9.63899607,23.7758406 C8.87754043,23.9512556 6.56779164,24.5526785 4.53724325,25.0789236 C0.526910188,26.1314137 0.247709785,26.1815322 0.247709785,25.8056429 Z" id="Shape"></path>
                        <path d="M12.9894009,25.1290421 C12.7609642,25.028805 12.7102005,24.0013742 12.8371098,20.4680145 C12.9894009,16.4084098 12.9640191,15.8571055 12.5832912,15.556394 C12.0756541,15.1303861 12.0502723,14.6793189 12.5579094,14.8797933 C12.8878735,14.9800304 12.9386372,14.6542597 12.9386372,12.7998723 C12.9386372,11.2461965 12.8371098,10.5194771 12.6340549,10.4442992 C12.3802364,10.3440621 12.3802364,10.2438249 12.6594368,10.0684099 C12.9132553,9.86793561 13.0401646,8.91568266 13.1163102,6.10904238 C13.1670739,4.05418074 13.2686013,2.0243784 13.319365,1.62342979 C13.4462743,0.896710427 13.497038,0.871651139 14.4107848,0.946829003 C14.9184219,0.99694758 16.5936243,0.796473274 18.1165356,0.520821104 C20.0963203,0.14493178 20.9846852,0.0697539156 21.1623582,0.245168933 C21.3146493,0.395524662 21.543086,2.4503863 21.6953771,4.88113725 C21.9745775,9.61734273 21.8222864,10.5695957 20.7816303,10.8953664 C20.4770481,10.9956036 18.751082,10.9956036 16.9489703,10.8953664 L13.7000928,10.7199514 L13.7000928,11.5719672 C13.7000928,12.0230344 13.7762384,13.1757617 13.8777658,14.1280146 L14.030057,15.8571055 L16.9743521,17.7365521 C18.5987908,18.7890422 20.8831578,20.2174216 22.0761049,20.944141 C23.2690521,21.6458011 24.2589445,22.422639 24.3097082,22.6481726 C24.4112356,23.1493584 23.9289803,23.8008999 23.4467251,23.8008999 C22.8375606,23.8008999 20.8070122,22.3725204 17.8119533,19.8665916 C13.4716562,16.2079355 13.9539114,16.2079355 13.9539114,20.0420066 L13.9539114,23.2997141 L15.6544957,22.1720461 C17.5073711,20.9692003 18.2688267,20.768726 18.2688267,21.5205046 C18.2688267,21.7961568 17.6088985,22.422639 16.466715,23.1994769 C13.7762384,25.028805 13.3447469,25.2543386 12.9894009,25.1290421 Z M19.1064279,9.54216486 L20.0455566,9.51710557 L20.0455566,8.26414116 L20.0455566,7.01117675 L17.1266432,7.01117675 C15.5275864,7.01117675 14.1315844,6.98611746 14.030057,6.96105818 C13.8016203,6.88588031 13.5985654,9.16627554 13.7762384,9.61734273 C13.852384,9.81781703 14.5123122,9.84287632 16.0098416,9.74263917 C17.177407,9.64240201 18.573409,9.54216486 19.1064279,9.54216486 Z M18.7764638,5.80833092 L20.1724658,5.6329159 L20.2486114,3.40263925 L20.324757,1.1723626 L18.7257001,1.39789619 C17.8373352,1.52319263 16.3651876,1.5983705 15.426059,1.57331121 L13.7000928,1.52319263 L13.7000928,6.33457597 L15.5529682,6.15916095 C16.5428606,6.0589238 18.0150082,5.88350878 18.7764638,5.80833092 Z" id="Shape"></path>
                        <path d="M2.60822228,23.2245362 C2.50669487,23.0491212 2.45593116,20.7937853 2.53207672,18.16256 C2.60822228,15.556394 2.73513156,13.5767103 2.83665898,13.7771846 C3.24276866,14.7294375 3.90269688,21.6959196 3.67426019,22.6231133 C3.47120535,23.3498327 2.91280454,23.6756034 2.60822228,23.2245362 Z" id="Shape"></path>
                        <path d="M5.75557228,19.641058 C5.52713559,19.4155244 5.52713559,13.376236 5.73019043,12.599398 C6.03477269,11.5469079 6.28859123,12.0230344 6.46626422,13.9275403 L6.6439372,15.8571055 L8.36990333,15.7067498 C9.61361422,15.6065126 10.1973969,15.6566312 10.3750699,15.8821648 C10.882707,16.4835877 10.172015,16.7592399 8.47143075,16.6088841 L6.8723739,16.4585284 L6.79622833,18.0623229 C6.74546462,19.2651687 6.61855535,19.6911766 6.33935494,19.7412952 C6.11091825,19.7663545 5.8570997,19.7412952 5.75557228,19.641058 Z" id="Shape"></path>
                        <path d="M19.9186473,17.7866707 C19.8425017,17.6613742 20.2993751,16.8845363 20.9593033,16.1076984 C21.6192316,15.3058012 22.3806872,14.1530739 22.6852695,13.5265917 C23.1675247,12.4741016 23.2182884,12.4490423 23.294434,13.0755245 C23.3959614,14.0027182 22.583742,15.7568683 21.4415586,17.0098328 C20.4516662,18.0623229 20.1978477,18.2126786 19.9186473,17.7866707 Z" id="Shape"></path>
                        <path d="M2.35440374,12.2235087 C2.10058519,11.897738 1.51680253,4.43007007 1.51680253,1.69860765 C1.51680253,0.896710427 1.6437118,0.245168933 1.77062108,0.245168933 C1.9229122,0.245168933 2.02443962,0.721295409 2.02443962,1.32271833 C2.02443962,1.89908196 2.32902188,4.22959576 2.7097497,6.4849317 L3.42044164,10.5695957 L5.50175374,10.4192399 C6.6439372,10.3190028 8.19223035,10.0934692 8.92830414,9.8929949 C10.0958695,9.59228344 10.3243062,9.59228344 10.6542703,9.91805419 C11.2380529,10.4693585 10.6542703,11.0958407 9.35979567,11.3464336 C8.29375777,11.5469079 5.93324527,11.4216115 4.30880656,11.0958407 C3.62349648,10.9705443 3.54735091,11.0206629 3.54735091,11.5970265 C3.54735091,11.9478565 3.36967793,12.2986866 3.14124124,12.3738644 C2.60822228,12.5743387 2.63360414,12.5743387 2.35440374,12.2235087 Z" id="Shape"></path>
                        <path d="M9.13135898,9.14121625 C8.87754043,8.86556408 8.85215857,7.91331113 9.0044497,5.25702658 C9.15674083,1.94920053 9.15674083,1.74872623 8.69986744,1.74872623 C7.22771986,1.69860765 2.98895011,1.27259975 2.86204083,1.14730331 C2.55745857,0.84659185 2.9381864,0.796473274 6.39011865,0.621058256 L9.89281462,0.445643239 L10.1466332,1.12224402 C10.2735424,1.47307406 10.4004517,3.45275783 10.4004517,5.50761946 C10.4004517,8.66508977 10.349688,9.2414534 9.99434204,9.36674984 C9.46132309,9.56722415 9.48670494,9.56722415 9.13135898,9.14121625 Z" id="Shape"></path>
                    </g>
                    <g id="qu" opacity="0.5" transform="translate(88.762887, 5.628866)" fill="#32312D" fill-rule="nonzero" stroke="#32312D">
                        <path d="M17.0232615,26.1085563 C16.638743,25.6958574 16.1718276,24.8979729 15.9795684,24.4027343 C15.7873091,23.8799824 15.5950499,23.4397703 15.5675843,23.3847438 C15.5401187,23.3572305 13.8097854,23.5773366 11.7498648,23.8799824 C8.04200776,24.4302476 3.8672354,24.5678138 2.52142062,24.1826282 C1.28546827,23.8249559 1.58758996,23.192151 4.11442587,20.743471 C5.70743111,19.2027286 6.88845224,17.7995524 7.4377644,16.7265354 C8.31666384,15.1032532 9.05823525,14.4704482 8.67371674,15.7085448 C8.20680141,17.1942608 7.0807115,19.037649 5.43277503,20.9085506 C4.47147877,22.0090809 3.70244175,22.9720449 3.75737297,22.9995582 C4.19682269,23.4672835 13.9471134,22.1741604 14.5238912,21.596382 C14.5788224,21.5138422 14.1943039,20.633418 13.6449917,19.6154274 C12.6287642,17.7720392 12.5463674,16.8641017 13.5351293,18.1021983 C13.837251,18.4873839 15.0182721,20.2207191 16.1718276,21.9540544 C17.3528488,23.6873896 18.4514731,25.2831585 18.6437323,25.4757514 C18.8909228,25.7508839 18.9183884,25.9985033 18.7261292,26.3836889 C18.314145,27.1265468 17.7922985,27.044007 17.0232615,26.1085563 Z" id="Shape"></path>
                        <path d="M0.818552943,13.2323516 C-1.07657399,12.9297058 0.406568828,12.6545732 4.52640998,12.5170069 C7.16310832,12.4344672 10.266722,12.1318213 12.1343833,11.8016622 C13.8647166,11.4990164 16.0344996,11.1963706 16.9408647,11.1688573 C18.4240075,11.0863175 18.5888011,11.141344 18.5888011,11.6365827 C18.5888011,12.1318213 18.176817,12.2143611 13.9196478,12.7921395 C9.6075474,13.3699179 3.09819838,13.5625107 0.818552943,13.2323516 Z" id="Shape"></path>
                        <path d="M9.14063207,10.8662115 C9.00330403,10.5085391 8.78357917,9.29795578 8.67371674,8.19742547 L8.48145749,6.21647091 L7.65748926,6.38155045 C6.14688083,6.68419629 2.30169576,6.90430235 1.80731482,6.71170955 C0.955880982,6.38155045 1.91717725,5.99636484 3.59257932,5.99636484 C4.41654755,5.99636484 5.87222476,5.85879856 6.83352103,5.69371901 L8.56385431,5.39107317 L8.56385431,2.80482694 C8.56385431,1.37413754 8.67371674,0.218580711 8.81104478,0.218580711 C9.08570086,0.218580711 9.38782254,2.22704853 9.38782254,4.01541028 L9.38782254,5.25350688 L10.4315156,5.08842734 C10.9808278,4.97837431 12.299177,4.84080802 13.34287,4.73075499 C14.8809441,4.56567544 15.2105314,4.5931887 15.1006689,4.92334779 C15.0182721,5.17096711 14.1119071,5.41858643 12.4090394,5.63869249 C11.0082934,5.8312853 9.79980666,6.05139136 9.71740983,6.13393113 C9.63501301,6.21647091 9.71740983,7.04186864 9.90966909,8.00483266 C10.4589812,10.5360524 10.4315156,11.3339369 9.88220348,11.4439899 C9.55261619,11.4990164 9.30542572,11.3064236 9.14063207,10.8662115 Z" id="Shape"></path>
                    </g>
                    <g id="tai" transform="translate(113.876289, 3.896907)" fill-rule="nonzero">
                        <path d="M0.479129014,26.9876041 C0.479129014,26.8500378 0.616457052,26.7124715 0.808716306,26.7124715 C1.24816603,26.7124715 8.08710234,25.914587 9.21319226,25.7219942 C10.0646261,25.5844279 10.0920917,25.5294014 10.0920917,24.318818 L10.0920917,23.0532082 L7.97723991,23.245801 C6.79621878,23.355854 5.36800718,23.5759601 4.76376381,23.7135264 C3.82993315,23.9611457 3.19822417,23.8786059 3.52781147,23.5759601 C3.77500194,23.3283408 8.05963674,22.3103502 8.85613936,22.3103502 C9.81743563,22.3103502 10.3667478,21.8976514 10.3667478,21.1547934 C10.3667478,20.8796608 10.5040758,20.6595548 10.6414039,20.6595548 C10.8061975,20.6595548 10.9160599,20.9622006 10.9160599,21.3473862 C10.9160599,22.0352177 10.9435255,22.0352177 12.5090652,21.8426248 C14.898573,21.5674923 14.898573,21.5674923 14.898573,22.1727839 C14.898573,22.6405093 14.6513826,22.7505624 13.0034461,22.9431552 C11.959753,23.0532082 11.053388,23.1907745 10.9984568,23.245801 C10.9160599,23.3008275 10.9709911,23.7960662 11.053388,24.3463313 C11.2731128,25.5294014 11.4104409,25.5294014 15.8598693,24.9241097 C20.9135411,24.2362783 22.7262712,24.4563843 22.7262712,25.7219942 C22.7262712,26.4098256 22.039631,26.657445 19.4303983,26.9325775 C15.8049381,27.2902499 0.479129014,27.3727897 0.479129014,26.9876041 Z" id="Shape" stroke="#C8A1FF" fill="#C8A1FF"></path>
                        <path d="M4.87362624,20.3293957 C4.87362624,19.9166968 5.39547279,19.4214582 7.70258384,17.5230434 C9.62517637,15.9547877 9.68010759,16.6151059 7.75751505,18.3484411 C6.43916588,19.5315112 6.21944102,19.834157 6.68635635,19.834157 C8.14203356,19.834157 14.7790977,18.9347486 13.4882141,18.9072354 C12.9114363,18.9072354 11.6850969,17.908229 12.2344091,17.908229 C13.0858429,17.908229 16.2718534,19.6690775 16.3542503,20.1918294 C16.4915783,20.8246343 15.7225413,20.7971211 14.8161762,20.1368029 C14.129536,19.6690775 13.9647424,19.6415642 12.2893403,19.9992366 C11.3005784,20.2193426 9.24065787,20.466962 7.70258384,20.577015 C5.31307597,20.7145813 4.87362624,20.687068 4.87362624,20.3293957 Z" id="Shape" stroke="#92CEFF" fill="#92CEFF"></path>
                        <path d="M2.29185912,16.2849468 C1.98973744,15.8172214 3.08836174,15.6796551 8.71881132,15.4045225 C11.822425,15.239443 14.761245,15.1018767 15.2830916,15.0743634 C16.299319,15.0193369 16.7387688,15.5145756 15.9422661,15.8447347 C15.6676101,15.9823009 12.7837213,16.1198672 9.54277955,16.1473805 C6.30183784,16.202407 3.36301782,16.31246 3.03343053,16.3949998 C2.70384324,16.4775396 2.37425594,16.4225131 2.29185912,16.2849468 Z" id="Shape" stroke="#7BCE27" fill="#7BCE27"></path>
                        <path d="M0.204472937,14.6066381 C0.204472937,13.9738331 0.231938545,13.0383824 0.341800975,12.68071 C0.534060229,12.0479051 1.02844117,11.937852 1.02844117,12.5431437 C1.02844117,13.0108691 2.67637763,13.0383824 4.48910774,12.7082233 C6.08211298,12.4055774 12.72879,11.6902327 16.3267846,11.4426134 C18.7437581,11.2775339 18.8536206,11.2775339 19.2381391,11.9103388 C19.6775888,12.570657 19.7874512,13.1484354 19.73252,14.276479 C19.7050544,14.7717176 19.5677264,14.9092839 19.100811,14.8267441 C18.6064301,14.7717176 18.4416364,14.5240983 18.331774,13.7812403 L18.194446,12.8182763 L16.6838375,12.8457896 C13.7450175,12.8733028 1.22070042,13.533621 0.973509952,13.6711873 C0.863647521,13.7537271 0.753785091,14.1664259 0.753785091,14.6341513 C0.753785091,15.0743634 0.64392266,15.4320358 0.479129014,15.4320358 C0.341800975,15.4320358 0.204472937,15.0743634 0.204472937,14.6066381 Z" id="Shape" stroke="#D8CD35" fill="#D8CD35"></path>
                        <path d="M4.21445166,11.6627195 C4.13205484,11.5801797 4.04965801,10.9473748 4.04965801,10.2595433 C4.04965801,9.40663233 3.91232997,8.91139369 3.58274268,8.66377437 C3.14329296,8.33361528 3.280621,8.30610202 4.54403895,8.27858876 C5.34054157,8.27858876 7.12580607,8.11350922 8.52655207,7.89340315 C13.5802239,7.12303194 14.4041921,7.09551868 15.0359011,7.72832361 C15.4204196,8.11350922 15.5852132,8.63626111 15.5852132,9.48917211 L15.5852132,10.6997554 L14.1570016,10.8373217 C10.6139382,11.2500206 5.14828232,11.3600736 5.14828232,11.0849411 C5.14828232,10.7272687 8.47162085,10.5346759 11.6027001,10.3145698 L14.2119329,10.121977 L14.2119329,9.35160582 C14.2119329,8.93890695 14.1020704,8.52620808 13.992208,8.44366831 C13.8823456,8.38864179 11.7125626,8.44366831 9.18572665,8.63626111 L4.59897017,8.93890695 L4.76376381,10.2320301 C4.92855746,11.4151002 4.65390138,12.1029316 4.21445166,11.6627195 Z" id="Shape" stroke="#FFB264" fill="#FFB264"></path>
                        <path d="M2.5938112,6.71033307 C2.37408634,6.38017398 4.48948744,6.13282979 7.18056768,6.07752814 C7.99657089,6.06074505 8.75736822,5.9952635 8.71864171,5.69234253 C8.67249949,5.33274425 8.58131368,3.73890123 8.58131368,3.73890123 L6.10940898,3.73890123 C4.76359421,3.73890123 3.11565775,3.821441 2.48394877,3.95900729 C1.82477418,4.06906032 1.30292764,4.04154706 1.30292764,3.90398078 C1.30292764,3.51879517 3.52764186,3.05106978 6.24673702,2.85847698 L8.71864171,2.69339743 L8.71864171,1.51032735 C8.71864171,-0.0854416021 9.18555704,-0.0304150866 9.43274751,1.56535386 C9.57007555,2.52831789 9.41104968,2.77593721 9.74063698,2.63837092 C9.96036184,2.55583114 12.4264988,2.41826486 14.8160066,2.30821182 C19.0457102,2.14313228 19.1555726,2.14313228 19.1555726,2.69339743 C19.1555726,3.49128191 18.5238637,3.60133494 13.6899167,3.60133494 L9.48767873,3.60133494 C9.48767873,3.60133494 9.59754116,4.81742093 9.48767873,5.44472321 C9.60330894,6.00681907 9.48767873,5.85742208 12.3441019,5.66482927 C14.6786786,5.52726299 15.5850436,5.55477624 15.7223717,5.80239556 C15.8322341,5.96747511 15.8047685,6.24260769 15.6674405,6.38017398 C15.282922,6.76535959 2.81353606,7.06800542 2.5938112,6.71033307 Z" id="Shape" stroke="#FF838B" fill="#FF838B"></path>
                    </g>
                    <g id="wan" transform="translate(140.288660, 3.030928)">
                        <path d="M12.4087462,27.9636365 C9.55232301,27.1932652 9.22273572,26.9731592 9.22273572,25.9001421 C9.22273572,24.717072 10.2114976,24.3318864 11.7495716,24.9096649 C14.2214763,25.8451156 17.1053651,26.4779205 18.7807672,26.4779205 C20.3463068,26.4779205 20.6209629,26.3953808 21.3350687,25.6800361 C22.1865025,24.7996118 22.3512962,23.8641611 21.8569153,22.4334717 C21.5547936,21.6355872 21.527328,21.6080739 20.26391,21.82818 C19.5498042,21.938233 17.2426932,22.048286 15.1003758,22.048286 C12.5186086,22.0757993 10.7882754,22.2133656 9.8819103,22.4884982 C8.23397384,22.9837368 7.27267757,23.0112501 6.69589981,22.5710379 C6.17405326,22.1583391 5.78953476,19.3795 6.14658766,18.8292349 C6.3113813,18.5816156 7.49240243,18.3890228 9.66218544,18.2239432 C11.4474499,18.0863769 19.1021148,17.2199844 20.1183423,17.1374447 C21.9860036,16.9448519 22.1315713,16.490608 22.1315713,15.6927235 L22.1315713,14.894839 L20.5660317,15.0599186 C19.6871322,15.1424583 18.0391958,15.3350511 16.9131059,15.4726174 C14.1665451,15.8302898 7.57479926,15.9953693 7.57479926,15.7202368 C7.57479926,15.3900777 8.34383627,15.2525114 11.9418309,14.9223523 C13.6446986,14.7572727 15.8144816,14.4546269 16.7483122,14.2620341 C17.6546773,14.041928 19.3850106,13.7943087 20.5385661,13.7117689 C22.5435554,13.5742026 22.7083491,13.6017159 23.0928676,14.1794943 C23.5872485,14.9498655 23.697111,17.7837311 23.2576612,18.306483 C22.8731427,18.7742084 6.8085088,19.3387804 6.8085088,19.3387804 L6.74259134,20.3812578 C7.12710985,22.6373449 7.0254871,22.2959054 10.4586881,21.4154811 C11.4199843,21.1678618 13.2876457,20.975269 14.9905133,20.975269 C16.5835186,20.975269 18.7533016,20.8101894 19.8244603,20.5900834 C22.1590369,20.1498713 22.5160898,20.3149508 23.2576612,21.9107198 C24.3288199,24.2768599 23.5048517,26.8906194 21.3076031,28.0461762 C19.632201,28.9541137 15.8419472,28.8990872 12.4087462,27.9636365 Z" id="Shape" stroke="url(#linearGradient-2)" fill="url(#linearGradient-1)"></path>
                        <path d="M0.159085181,25.2123107 C0.159085181,24.8271251 0.488672473,23.6715683 0.873190981,22.681091 C2.0267465,19.7921989 5.37755064,13.3265833 5.84446597,13.1615038 C6.09165644,13.0514507 6.44870934,13.1339905 6.64096859,13.2990701 C7.38254,13.9043617 7.38254,13.8493352 3.4549581,20.1498713 C2.65845548,21.4429944 1.61476239,23.2588694 1.17531267,24.2218334 C0.735862942,25.1572842 0.323878827,25.9276554 0.268947612,25.9276554 C0.214016396,25.9276554 0.159085181,25.5974963 0.159085181,25.2123107 Z" id="Shape" stroke="url(#linearGradient-4)" fill="url(#linearGradient-3)"></path>
                        <path d="M7.30014318,13.078964 C7.30014318,12.9413977 7.41000561,12.6662651 7.57479926,12.4461591 C7.87692094,11.9509204 8.26143945,12.2535663 8.04171459,12.8588579 C7.87692094,13.2715568 7.30014318,13.4366364 7.30014318,13.078964 Z" id="Shape" stroke="#D8CD35" fill="#D8CD35" fill-rule="nonzero"></path>
                        <path d="M10.0467039,12.3087243 C10.0467039,11.9235387 10.184032,11.6208928 10.32136,11.6208928 C10.4861537,11.6208928 10.5960161,11.7309459 10.5960161,11.8685122 C10.5960161,12.0060785 10.6784129,12.3087243 10.7608097,12.5563436 C10.8706722,12.8589894 10.7882754,12.9965557 10.4861537,12.9965557 C10.2114976,12.9965557 10.0467039,12.7489364 10.0467039,12.3087243 Z" id="Shape" stroke="#D8CD35" fill="#D8CD35" fill-rule="nonzero"></path>
                        <path d="M12.7932082,12.4362543 C12.7932082,12.0235554 14.2955769,11.4823697 15.0646139,11.2897769 C16.0533758,11.0421575 15.677097,10.1350454 14.6608695,10.0249924 C14.1115574,9.96996588 13.6995732,10.1350454 13.2601235,10.6302841 C13.0403987,10.8674483 13.1365283,12.1074709 12.7163045,12.0513438 C12.3400257,12.0007194 12.243896,10.9909829 12.243896,10.2175852 C12.243896,9.41970072 12.6558801,8.89694882 12.8481394,9.44721398 C12.9305362,9.66732004 13.2326579,9.61229353 13.8643669,9.30964769 C15.1277848,8.62181625 15.8693562,8.84192231 16.446134,9.99747914 C17.077843,11.3181155 16.8581181,11.8133541 15.4299065,12.005947 C14.7707319,12.116 12.7932082,12.7664134 12.7932082,12.4362543 Z" id="Shape" stroke="#D8CD35" fill="#D8CD35" fill-rule="nonzero"></path>
                        <path d="M8.94807964,12.3361389 C8.94807964,12.1160329 9.08540768,11.8409003 9.22273572,11.7583605 C9.38752936,11.6758207 9.49739179,11.8409003 9.49739179,12.1435461 C9.49739179,12.4737052 9.38752936,12.7213245 9.22273572,12.7213245 C9.08540768,12.7213245 8.94807964,12.556245 8.94807964,12.3361389 Z" id="Shape" stroke="#D8CD35" fill="#D8CD35" fill-rule="nonzero"></path>
                        <path d="M18.1765238,12.226053 C18.094127,12.0884867 18.1490582,11.5107083 18.3138519,10.9329299 C18.6983704,9.61229353 19.2476825,10.0525057 19.0004921,11.4556818 C18.8082328,12.3911326 18.4786455,12.7212917 18.1765238,12.226053 Z" id="Shape" stroke="#D8CD35" fill="#D8CD35" fill-rule="nonzero"></path>
                        <path d="M20.2089788,11.7858409 C19.8519259,11.3456288 20.0441851,9.96996588 20.4561693,9.96996588 C20.7582909,9.96996588 21.032947,11.7033011 20.7857566,11.9784337 C20.6484285,12.0884867 20.401238,12.005947 20.2089788,11.7858409 Z" id="Shape" stroke="#D8CD35" fill="#D8CD35" fill-rule="nonzero"></path>
                        <path d="M6.39377813,11.153036 C6.00925962,10.7678504 6.25645009,10.2450985 7.46493683,8.81440905 L8.70088917,7.35620639 L7.57479926,7.27366662 C6.94309028,7.2186401 6.39377813,7.0260473 6.3113813,6.83345449 C6.14658766,6.42075562 7.79452412,3.64191659 8.17904263,3.64191659 C8.48116431,3.64191659 8.20650823,4.65990713 7.65719608,5.51281812 C7.43747122,5.87049047 7.32760879,6.22816282 7.38254,6.31070259 C7.60226486,6.5032954 9.85444469,5.7879507 10.3488256,5.37525183 C11.2002595,4.65990713 11.1178626,5.37525183 10.184032,6.83345449 C9.08540768,8.53927647 7.97579713,9.45684362 8.52510928,9.45684362 C8.74483414,9.45684362 10.0467039,9.15144646 10.0467039,8.84880062 C10.0467039,8.54615479 10.184032,7.49377268 10.32136,7.49377268 C10.4861537,7.49377268 10.5960161,7.79641851 10.5960161,8.15409086 C10.5960161,8.53927647 10.7333441,8.92446208 10.8706722,9.00700186 C11.1041298,9.5495633 11.2936425,10.0392993 11.0739177,10.2332678 C10.9420828,10.3485483 10.6811595,9.92511927 10.4037568,9.91493936 C9.96430712,9.8874261 9.00301086,10.2175852 8.20650823,10.6302841 C6.61350299,11.4281685 6.64096859,11.4281685 6.39377813,11.153036 Z" id="Shape" stroke="#FFB264" fill="#FFB264" fill-rule="nonzero"></path>
                        <path d="M22.296365,10.9054166 C22.1865025,10.6577973 22.1865025,10.3826647 22.2414338,10.3276382 C22.4611586,10.1075322 22.9555396,10.5477443 22.9555396,10.9604432 C22.9555396,11.4831951 22.5160898,11.4556818 22.296365,10.9054166 Z" id="Shape" stroke="#D8CD35" fill="#D8CD35" fill-rule="nonzero"></path>
                        <path d="M2.57605866,8.95197534 C1.77955603,8.2641439 1.09291584,7.57631245 1.03798463,7.43874616 C0.845725373,6.97102078 1.72462482,7.24615336 2.93311156,7.98901132 C4.44371998,8.95197534 5.15782578,9.66732004 4.96556653,9.99747914 C4.63597923,10.4927178 4.00427026,10.2175852 2.57605866,8.95197534 Z" id="Shape" stroke="#FFB264" fill="#FFB264" fill-rule="nonzero"></path>
                        <path d="M22.1560473,8.7220363 C21.9810757,8.24121673 21.3686751,8.27126795 19.239854,8.81218998 C17.2947531,9.53612395 17.4493113,8.80708127 18.983229,7.50976995 L20.5958839,6.01502209 C20.5958839,6.01502209 18.2279349,6.69838691 17.7292659,6.22327707 C17.5834562,5.7424575 20.2313597,1.99056224 20.7562745,1.99056224 C21.0770558,1.99056224 20.9604081,2.35117693 20.3188455,3.40296975 C19.2106921,5.17599193 19.1465358,5.21415699 20.4529904,4.99718715 C21.4794905,4.8264962 21.9810757,4.57496746 22.2143712,4.39466012 C22.4476666,4.18430156 22.7684479,4.09414789 22.9434195,4.15425033 C23.147553,4.21435278 22.739286,4.8754797 22.0977234,5.65681151 L20.1497063,7.62306306 C21.004151,7.49955253 22.1647959,7.54643244 22.3339351,6.44114844 C22.9171738,6.06731122 22.7976098,7.06921901 22.8267718,7.55003859 C22.8559337,7.88060205 22.9725814,8.39147285 23.0892292,8.69198508 C23.2350388,9.05259976 23.147553,9.20285588 22.8267718,9.20285588 C22.5643144,9.20285588 22.272695,8.99249732 22.1560473,8.7220363 Z" id="Shape" stroke="#FFB264" fill="#FFB264" fill-rule="nonzero"></path>
                        <path d="M12.6284145,8.01652458 C12.4636209,7.741392 13.2326579,7.4112329 14.6608695,7.08107381 C15.3475097,6.94350752 15.5397689,6.99853404 15.5397689,7.32869313 C15.5397689,7.57631245 15.2651129,7.82393177 14.9355256,7.87895829 C13.3974516,8.18160412 12.7657426,8.23663064 12.6284145,8.01652458 Z" id="Shape" stroke="#FFB264" fill="#FFB264" fill-rule="nonzero"></path>
                        <path d="M12.1341467,5.92551698 C11.9144218,5.70541092 15.539882,4.71493364 15.8694693,4.90752645 C16.308919,5.18265902 16.0617286,5.7879507 15.4849508,5.95303024 C14.633517,6.1731363 12.3813371,6.1731363 12.1341467,5.92551698 Z" id="Shape" stroke="#FFB264" fill="#FFB264" fill-rule="nonzero"></path>
                        <path d="M2.93311156,3.06413818 C2.46619623,2.29376696 2.10914333,1.49588248 2.16407454,1.33080293 C2.32886819,0.89059081 4.60851363,3.33927075 4.4986512,3.86202265 C4.33385755,4.71493364 3.812011,4.43980106 2.93311156,3.06413818 Z" id="Shape" stroke="#FF838B" fill="#FF838B" fill-rule="nonzero"></path>
                        <path d="M11.2277251,4.10964197 C11.3650531,3.66942985 14.0292171,2.81651886 15.4024974,2.73397908 C16.2264657,2.70646582 16.5011218,2.7890056 16.5011218,3.09165143 C16.5011218,3.36678401 16.0067408,3.58689007 14.9905133,3.80699614 C12.1890213,4.35726129 11.1178626,4.43980106 11.2277251,4.10964197 Z" id="Shape" stroke="#FF838B" fill="#FF838B" fill-rule="nonzero"></path>
                        <path d="M12.8207303,1.05567036 C12.491143,0.697998006 12.3263494,0.312812397 12.4636774,0.230272624 C12.7657991,0.065193077 14.1665451,1.05567036 14.1665451,1.46836922 C14.1665451,1.93609461 13.4524393,1.71598854 12.8207303,1.05567036 Z" id="Shape" stroke="#FF838B" fill="#FF838B" fill-rule="nonzero"></path>
                    </g>
                </g>
            </g>
        </g>
    </g>
</svg>